<?xml version="1.0" encoding="UTF-8"?>
<svg id="Layer_2" data-name="Layer 2" xmlns="http://www.w3.org/2000/svg" viewBox="0 0 499.78 63.8">
  <defs>
    <style>
      .cls-1 {
        fill: #1a1a1a;
      }

      .cls-2 {
        fill: #604ed5;
      }
    </style>
  </defs>
  <g id="Layer_1-2" data-name="Layer 1">
    <g>
      <path class="cls-2" d="M7.66,63.8c-3.62,0-5.98-1.01-7.06-3.03-1.08-2.02-.7-4.62,1.14-7.81L29.41,4.47c1.7-2.98,3.79-4.47,6.27-4.47s4.57,1.49,6.27,4.47l27.67,48.5c1.84,3.19,2.22,5.79,1.14,7.81-1.08,2.02-3.45,3.03-7.1,3.03H7.66Zm16.79-14.29c1.52,1.43,3.44,2.15,5.74,2.15s4.22-.72,5.74-2.15c1.52-1.43,2.28-3.26,2.28-5.48s-.76-4-2.28-5.44c-1.52-1.43-3.44-2.15-5.74-2.15s-4.22,.72-5.74,2.15c-1.52,1.43-2.28,3.25-2.28,5.44s.76,4.05,2.28,5.48Z"/>
      <path class="cls-1" d="M158.79,.94c1.8,0,2.69,.9,2.69,2.69V15.31c0,1.8-.9,2.69-2.69,2.69h-42.92c-1.53,0-2.33,.81-2.33,2.51v1.62c0,1.71,.72,2.51,2.24,2.51h30.89c11.04,0,17.15,6.11,17.15,16.61v7.09c0,9.25-5.84,15.45-17.42,15.45h-48.94c-1.8,0-2.69-.9-2.69-2.69v-11.67c0-1.8,.9-2.69,2.69-2.69h45.17c1.53,0,2.33-.81,2.33-2.51v-2.06c0-1.71-.72-2.51-2.25-2.51h-30.89c-11.04,0-17.15-6.11-17.15-16.61v-6.65c0-9.25,5.84-15.44,17.42-15.44h46.69Z"/>
      <path class="cls-1" d="M189.51,.94c1.8,0,2.69,.9,2.69,2.69V24.2h33.23V3.64c0-1.8,.9-2.69,2.69-2.69h13.47c1.8,0,2.69,.9,2.69,2.69V61.11c0,1.8-.9,2.69-2.69,2.69h-13.47c-1.8,0-2.69-.9-2.69-2.69v-21.01h-33.23v21.01c0,1.8-.9,2.69-2.69,2.69h-13.47c-1.8,0-2.69-.9-2.69-2.69V3.64c0-1.8,.9-2.69,2.69-2.69h13.47Z"/>
      <path class="cls-1" d="M296.73,.94c6.11,0,9.88,1.71,13.65,9.07l26.31,51.1c.81,1.53,.54,2.69-1.44,2.69h-15.89c-1.44,0-2.06-.36-2.6-1.44l-4.67-9.43h-35.74l-4.58,9.43c-.54,1.08-1.17,1.44-2.6,1.44h-16.34c-1.98,0-2.25-1.17-1.44-2.69l25.77-51.1c3.77-7.36,7.54-9.07,12.39-9.07h7.18Zm-13.56,37.89h21.91l-9.88-19.85c-.27-.45-.54-.63-.99-.63h-.45c-.45,0-.72,.18-.99,.63l-9.61,19.85Z"/>
      <path class="cls-1" d="M364.9,.94c8.53,0,10.33,1.44,13.65,7.09l22.09,37.18c.27,.45,.54,.63,.99,.63h.63c.45,0,.63-.27,.63-.9V3.64c0-1.8,.9-2.69,2.69-2.69h13.02c1.8,0,2.69,.9,2.69,2.69V51.59c0,9.7-3.41,12.21-10.42,12.21h-10.51c-8.53,0-10.33-1.44-13.65-7.09l-22.27-37.18c-.27-.45-.54-.63-.99-.63h-.63c-.45,0-.63,.27-.63,.9V61.11c0,1.8-.9,2.69-2.69,2.69h-13.02c-1.8,0-2.69-.9-2.69-2.69V13.16c0-9.7,3.32-12.21,10.33-12.21h10.78Z"/>
      <path class="cls-1" d="M497.09,.94c1.8,0,2.69,.9,2.69,2.69V15.31c0,1.8-.9,2.69-2.69,2.69h-39.42c-5.93,0-7.36,1.17-7.54,6.65h46.43c1.8,0,2.69,.9,2.69,2.69v9.61c0,1.8-.9,2.69-2.69,2.69h-46.43c.09,5.93,1.44,7.09,7.54,7.09h39.42c1.8,0,2.69,.9,2.69,2.69v11.67c0,1.8-.9,2.69-2.69,2.69h-39.69c-18.59,0-25.68-6.47-25.68-23.71v-15.45c0-17.24,7.09-23.71,25.68-23.71h39.69Z"/>
    </g>
  </g>
</svg>